<mxfile host="app.diagrams.net" modified="2021-06-05T07:36:42.956Z" agent="5.0 (Macintosh; Intel Mac OS X 10_15_7) AppleWebKit/537.36 (KHTML, like Gecko) Chrome/86.0.4240.193 Safari/537.36" etag="2pW46bwOK2M2Qo6uNmIo" version="14.7.3" type="github">
  <diagram id="DlcIFkbMV3SzN4HBeNl7" name="Page-1">
    <mxGraphModel dx="946" dy="536" grid="1" gridSize="10" guides="1" tooltips="1" connect="1" arrows="1" fold="1" page="1" pageScale="1" pageWidth="827" pageHeight="1169" math="0" shadow="0">
      <root>
        <mxCell id="0" />
        <mxCell id="1" parent="0" />
        <mxCell id="isg0n5PMR0wZiwoFThM6-14" style="edgeStyle=none;rounded=0;orthogonalLoop=1;jettySize=auto;html=1;exitX=1;exitY=0.25;exitDx=0;exitDy=0;entryX=0;entryY=0.25;entryDx=0;entryDy=0;" edge="1" parent="1" source="isg0n5PMR0wZiwoFThM6-1" target="isg0n5PMR0wZiwoFThM6-7">
          <mxGeometry relative="1" as="geometry" />
        </mxCell>
        <mxCell id="isg0n5PMR0wZiwoFThM6-1" value="Client" style="rounded=1;whiteSpace=wrap;html=1;fillColor=#fff2cc;strokeColor=#d6b656;" vertex="1" parent="1">
          <mxGeometry x="80" y="200" width="120" height="60" as="geometry" />
        </mxCell>
        <mxCell id="isg0n5PMR0wZiwoFThM6-11" style="edgeStyle=none;rounded=0;orthogonalLoop=1;jettySize=auto;html=1;exitX=0.5;exitY=0;exitDx=0;exitDy=0;entryX=1;entryY=0.5;entryDx=0;entryDy=0;" edge="1" parent="1" source="isg0n5PMR0wZiwoFThM6-4" target="isg0n5PMR0wZiwoFThM6-5">
          <mxGeometry relative="1" as="geometry" />
        </mxCell>
        <mxCell id="isg0n5PMR0wZiwoFThM6-18" style="edgeStyle=none;rounded=0;orthogonalLoop=1;jettySize=auto;html=1;exitX=0;exitY=0.75;exitDx=0;exitDy=0;entryX=1;entryY=0.75;entryDx=0;entryDy=0;" edge="1" parent="1" source="isg0n5PMR0wZiwoFThM6-4" target="isg0n5PMR0wZiwoFThM6-6">
          <mxGeometry relative="1" as="geometry" />
        </mxCell>
        <mxCell id="isg0n5PMR0wZiwoFThM6-4" value="Server" style="rounded=1;whiteSpace=wrap;html=1;fillColor=#dae8fc;strokeColor=#6c8ebf;" vertex="1" parent="1">
          <mxGeometry x="780" y="200" width="120" height="60" as="geometry" />
        </mxCell>
        <mxCell id="isg0n5PMR0wZiwoFThM6-10" style="rounded=0;orthogonalLoop=1;jettySize=auto;html=1;exitX=0;exitY=0.5;exitDx=0;exitDy=0;entryX=0.5;entryY=0;entryDx=0;entryDy=0;" edge="1" parent="1" source="isg0n5PMR0wZiwoFThM6-5" target="isg0n5PMR0wZiwoFThM6-1">
          <mxGeometry relative="1" as="geometry" />
        </mxCell>
        <mxCell id="isg0n5PMR0wZiwoFThM6-5" value="Registry" style="rounded=1;whiteSpace=wrap;html=1;fillColor=#ffe6cc;strokeColor=#d79b00;" vertex="1" parent="1">
          <mxGeometry x="430" y="60" width="120" height="60" as="geometry" />
        </mxCell>
        <mxCell id="isg0n5PMR0wZiwoFThM6-16" style="edgeStyle=none;rounded=0;orthogonalLoop=1;jettySize=auto;html=1;exitX=0;exitY=0.25;exitDx=0;exitDy=0;entryX=0.958;entryY=0.313;entryDx=0;entryDy=0;entryPerimeter=0;startArrow=classic;startFill=1;endArrow=none;endFill=0;" edge="1" parent="1" source="isg0n5PMR0wZiwoFThM6-6" target="isg0n5PMR0wZiwoFThM6-9">
          <mxGeometry relative="1" as="geometry" />
        </mxCell>
        <mxCell id="isg0n5PMR0wZiwoFThM6-17" style="edgeStyle=none;rounded=0;orthogonalLoop=1;jettySize=auto;html=1;exitX=1;exitY=0.25;exitDx=0;exitDy=0;entryX=0;entryY=0.25;entryDx=0;entryDy=0;" edge="1" parent="1" source="isg0n5PMR0wZiwoFThM6-6" target="isg0n5PMR0wZiwoFThM6-4">
          <mxGeometry relative="1" as="geometry" />
        </mxCell>
        <mxCell id="isg0n5PMR0wZiwoFThM6-19" style="edgeStyle=none;rounded=0;orthogonalLoop=1;jettySize=auto;html=1;exitX=0;exitY=0.75;exitDx=0;exitDy=0;" edge="1" parent="1" source="isg0n5PMR0wZiwoFThM6-6">
          <mxGeometry relative="1" as="geometry">
            <mxPoint x="546" y="246" as="targetPoint" />
          </mxGeometry>
        </mxCell>
        <mxCell id="isg0n5PMR0wZiwoFThM6-6" value="Server Stub" style="rounded=1;whiteSpace=wrap;html=1;fillColor=#dae8fc;strokeColor=#6c8ebf;" vertex="1" parent="1">
          <mxGeometry x="610" y="200" width="120" height="60" as="geometry" />
        </mxCell>
        <mxCell id="isg0n5PMR0wZiwoFThM6-15" style="edgeStyle=none;rounded=0;orthogonalLoop=1;jettySize=auto;html=1;exitX=1;exitY=0.25;exitDx=0;exitDy=0;entryX=0.042;entryY=0.325;entryDx=0;entryDy=0;entryPerimeter=0;" edge="1" parent="1" source="isg0n5PMR0wZiwoFThM6-7" target="isg0n5PMR0wZiwoFThM6-9">
          <mxGeometry relative="1" as="geometry" />
        </mxCell>
        <mxCell id="isg0n5PMR0wZiwoFThM6-20" style="edgeStyle=none;rounded=0;orthogonalLoop=1;jettySize=auto;html=1;exitX=1;exitY=0.75;exitDx=0;exitDy=0;entryX=0.033;entryY=0.688;entryDx=0;entryDy=0;entryPerimeter=0;startArrow=classic;startFill=1;endArrow=none;endFill=0;" edge="1" parent="1" source="isg0n5PMR0wZiwoFThM6-7" target="isg0n5PMR0wZiwoFThM6-9">
          <mxGeometry relative="1" as="geometry" />
        </mxCell>
        <mxCell id="isg0n5PMR0wZiwoFThM6-21" style="edgeStyle=none;rounded=0;orthogonalLoop=1;jettySize=auto;html=1;exitX=0;exitY=0.75;exitDx=0;exitDy=0;entryX=1;entryY=0.75;entryDx=0;entryDy=0;" edge="1" parent="1" source="isg0n5PMR0wZiwoFThM6-7" target="isg0n5PMR0wZiwoFThM6-1">
          <mxGeometry relative="1" as="geometry" />
        </mxCell>
        <mxCell id="isg0n5PMR0wZiwoFThM6-7" value="Client Stub" style="rounded=1;whiteSpace=wrap;html=1;fillColor=#fff2cc;strokeColor=#d6b656;" vertex="1" parent="1">
          <mxGeometry x="250" y="200" width="120" height="60" as="geometry" />
        </mxCell>
        <mxCell id="isg0n5PMR0wZiwoFThM6-8" value="loadbalance" style="rounded=1;whiteSpace=wrap;html=1;fillColor=#e1d5e7;strokeColor=#9673a6;" vertex="1" parent="1">
          <mxGeometry x="267" y="240" width="86" height="40" as="geometry" />
        </mxCell>
        <mxCell id="isg0n5PMR0wZiwoFThM6-9" value="decode/encode&lt;br&gt;serialize" style="ellipse;whiteSpace=wrap;html=1;fillColor=#d5e8d4;strokeColor=#82b366;" vertex="1" parent="1">
          <mxGeometry x="430" y="190" width="120" height="80" as="geometry" />
        </mxCell>
        <mxCell id="isg0n5PMR0wZiwoFThM6-12" value="&lt;pre&gt;register&lt;/pre&gt;" style="text;html=1;strokeColor=none;fillColor=none;align=center;verticalAlign=middle;whiteSpace=wrap;rounded=0;" vertex="1" parent="1">
          <mxGeometry x="710" y="100" width="40" height="20" as="geometry" />
        </mxCell>
        <mxCell id="isg0n5PMR0wZiwoFThM6-13" value="&lt;pre&gt;&lt;pre&gt;lookup&lt;/pre&gt;&lt;/pre&gt;" style="text;html=1;strokeColor=none;fillColor=none;align=center;verticalAlign=middle;whiteSpace=wrap;rounded=0;" vertex="1" parent="1">
          <mxGeometry x="240" y="100" width="40" height="20" as="geometry" />
        </mxCell>
      </root>
    </mxGraphModel>
  </diagram>
</mxfile>
